REM DIRINDEX 1\2,1\3,1\4,1\5,1\6
REM DIRNAME cjc091,folder01,folder02,folder03,folder04,folder05
TITLE ""
FILE "CD1-37.mp3" MP3
  TRACK 01 AUDIO
    TITLE "6:cjc091_0776"
    INDEX 01 00:00:00
  TRACK 02 AUDIO
    TITLE "0:"
    INDEX 01 00:01:69
  TRACK 03 AUDIO
    TITLE "2:cjc091_0777"
    INDEX 01 00:03:17
  TRACK 04 AUDIO
    TITLE "0:"
    INDEX 01 00:04:50
  TRACK 05 AUDIO
    TITLE "3:cjc091_0778"
    INDEX 01 00:04:72
  TRACK 06 AUDIO
    TITLE "0:"
    INDEX 01 00:06:65
  TRACK 07 AUDIO
    TITLE "4:cjc091_0779"
    INDEX 01 00:07:09
  TRACK 08 AUDIO
    TITLE "4:cjc091_0780"
    INDEX 01 00:08:26
  TRACK 09 AUDIO
    TITLE "4:cjc091_0781"
    INDEX 01 00:09:69
  TRACK 10 AUDIO
    TITLE "0:"
    INDEX 01 00:12:36
  TRACK 11 AUDIO
    TITLE "2:cjc091_0782"
    INDEX 01 00:13:47
  TRACK 12 AUDIO
    TITLE "0:"
    INDEX 01 00:15:13
  TRACK 13 AUDIO
    TITLE "3:cjc091_0783"
    INDEX 01 00:15:27
  TRACK 14 AUDIO
    TITLE "0:"
    INDEX 01 00:16:38
  TRACK 15 AUDIO
    TITLE "4:cjc091_0784"
    INDEX 01 00:16:63
  TRACK 16 AUDIO
    TITLE "4:cjc091_0785"
    INDEX 01 00:17:69
  TRACK 17 AUDIO
    TITLE "4:cjc091_0786"
    INDEX 01 00:20:00
  TRACK 18 AUDIO
    TITLE "4:cjc091_0787"
    INDEX 01 00:22:46
  TRACK 19 AUDIO
    TITLE "4:cjc091_0788"
    INDEX 01 00:23:67
  TRACK 20 AUDIO
    TITLE "0:"
    INDEX 01 00:27:12
  TRACK 21 AUDIO
    TITLE "2:cjc091_0789"
    INDEX 01 00:28:19
  TRACK 22 AUDIO
    TITLE "0:"
    INDEX 01 00:30:20
  TRACK 23 AUDIO
    TITLE "3:cjc091_0790"
    INDEX 01 00:30:36
  TRACK 24 AUDIO
    TITLE "0:"
    INDEX 01 00:32:39
  TRACK 25 AUDIO
    TITLE "4:cjc091_0791"
    INDEX 01 00:32:62
  TRACK 26 AUDIO
    TITLE "4:cjc091_0792"
    INDEX 01 00:40:17
  TRACK 27 AUDIO
    TITLE "4:cjc091_0793"
    INDEX 01 00:41:49
  TRACK 28 AUDIO
    TITLE "0:"
    INDEX 01 00:43:21
  TRACK 29 AUDIO
    TITLE "2:cjc091_0794"
    INDEX 01 00:44:30
  TRACK 30 AUDIO
    TITLE "0:"
    INDEX 01 00:46:31
  TRACK 31 AUDIO
    TITLE "3:cjc091_0795"
    INDEX 01 00:46:49
  TRACK 32 AUDIO
    TITLE "0:"
    INDEX 01 00:48:28
  TRACK 33 AUDIO
    TITLE "4:cjc091_0796"
    INDEX 01 00:48:42
  TRACK 34 AUDIO
    TITLE "4:cjc091_0797"
    INDEX 01 00:50:64
  TRACK 35 AUDIO
    TITLE "4:cjc091_0798"
    INDEX 01 00:52:02
  TRACK 36 AUDIO
    TITLE "0:"
    INDEX 01 00:54:30
  TRACK 37 AUDIO
    TITLE "2:cjc091_0799"
    INDEX 01 00:55:44
  TRACK 38 AUDIO
    TITLE "0:"
    INDEX 01 00:57:11
  TRACK 39 AUDIO
    TITLE "3:cjc091_0800"
    INDEX 01 00:57:33
  TRACK 40 AUDIO
    TITLE "0:"
    INDEX 01 00:59:08
  TRACK 41 AUDIO
    TITLE "4:cjc091_0801"
    INDEX 01 00:59:26
  TRACK 42 AUDIO
    TITLE "4:cjc091_0802"
    INDEX 01 01:01:70
  TRACK 43 AUDIO
    TITLE "0:"
    INDEX 01 01:03:59
  TRACK 44 AUDIO
    TITLE "2:cjc091_0803"
    INDEX 01 01:04:68
  TRACK 45 AUDIO
    TITLE "0:"
    INDEX 01 01:06:12
  TRACK 46 AUDIO
    TITLE "3:cjc091_0804"
    INDEX 01 01:06:22
  TRACK 47 AUDIO
    TITLE "0:"
    INDEX 01 01:07:68
  TRACK 48 AUDIO
    TITLE "4:cjc091_0805"
    INDEX 01 01:08:09
  TRACK 49 AUDIO
    TITLE "4:cjc091_0806"
    INDEX 01 01:10:57
  TRACK 50 AUDIO
    TITLE "4:cjc091_0807"
    INDEX 01 01:11:62
  TRACK 51 AUDIO
    TITLE "4:cjc091_0808"
    INDEX 01 01:13:36
  TRACK 52 AUDIO
    TITLE "0:"
    INDEX 01 01:15:56
  TRACK 53 AUDIO
    TITLE "2:cjc091_0809"
    INDEX 01 01:16:60
  TRACK 54 AUDIO
    TITLE "0:"
    INDEX 01 01:17:69
  TRACK 55 AUDIO
    TITLE "3:cjc091_0810"
    INDEX 01 01:18:02
  TRACK 56 AUDIO
    TITLE "0:"
    INDEX 01 01:19:36
  TRACK 57 AUDIO
    TITLE "4:cjc091_0811"
    INDEX 01 01:19:58
  TRACK 58 AUDIO
    TITLE "4:cjc091_0812"
    INDEX 01 01:21:67
  TRACK 59 AUDIO
    TITLE "4:cjc091_0813"
    INDEX 01 01:23:54
  TRACK 60 AUDIO
    TITLE "4:cjc091_0814"
    INDEX 01 01:24:67
  TRACK 61 AUDIO
    TITLE "0:"
    INDEX 01 01:28:35
  TRACK 62 AUDIO
    TITLE "2:cjc091_0815"
    INDEX 01 01:29:37
  TRACK 63 AUDIO
    TITLE "0:"
    INDEX 01 01:31:06
  TRACK 64 AUDIO
    TITLE "3:cjc091_0816"
    INDEX 01 01:31:24
  TRACK 65 AUDIO
    TITLE "0:"
    INDEX 01 01:32:60
  TRACK 66 AUDIO
    TITLE "4:cjc091_0817"
    INDEX 01 01:33:07
  TRACK 67 AUDIO
    TITLE "4:cjc091_0818"
    INDEX 01 01:34:59
  TRACK 68 AUDIO
    TITLE "4:cjc091_0819"
    INDEX 01 01:37:30
  TRACK 69 AUDIO
    TITLE "0:"
    INDEX 01 01:40:42
  TRACK 70 AUDIO
    TITLE "2:cjc091_0820"
    INDEX 01 01:41:54
  TRACK 71 AUDIO
    TITLE "0:"
    INDEX 01 01:43:51
  TRACK 72 AUDIO
    TITLE "3:cjc091_0821"
    INDEX 01 01:43:52
  TRACK 73 AUDIO
    TITLE "0:"
    INDEX 01 01:44:73
  TRACK 74 AUDIO
    TITLE "4:cjc091_0822"
    INDEX 01 01:45:16
  TRACK 75 AUDIO
    TITLE "4:cjc091_0823"
    INDEX 01 01:46:74
  TRACK 76 AUDIO
    TITLE "0:"
    INDEX 01 01:50:23
  TRACK 77 AUDIO
    TITLE "2:cjc091_0824"
    INDEX 01 01:51:34
  TRACK 78 AUDIO
    TITLE "0:"
    INDEX 01 01:53:04
  TRACK 79 AUDIO
    TITLE "3:cjc091_0825"
    INDEX 01 01:53:20
  TRACK 80 AUDIO
    TITLE "0:"
    INDEX 01 01:55:22
  TRACK 81 AUDIO
    TITLE "4:cjc091_0826"
    INDEX 01 01:55:50
  TRACK 82 AUDIO
    TITLE "4:cjc091_0827"
    INDEX 01 01:58:19
  TRACK 83 AUDIO
    TITLE "0:"
    INDEX 01 02:01:23
